<svg width="21" height="20" viewBox="0 0 21 20" fill="none" xmlns="http://www.w3.org/2000/svg">
<path d="M2.7002 4.99976H4.36699H17.7013" stroke="#DBDBDB" stroke-width="1.66678" stroke-linecap="round" stroke-linejoin="round"/>
<path d="M6.86726 4.9996V3.33281C6.86726 2.89075 7.04286 2.46679 7.35545 2.15421C7.66803 1.84162 8.09199 1.66602 8.53405 1.66602H11.8676C12.3097 1.66602 12.7337 1.84162 13.0462 2.15421C13.3588 2.46679 13.5344 2.89075 13.5344 3.33281V4.9996M16.0346 4.9996V16.6672C16.0346 17.1092 15.859 17.5332 15.5464 17.8458C15.2338 18.1583 14.8099 18.334 14.3678 18.334H6.03386C5.5918 18.334 5.16784 18.1583 4.85526 17.8458C4.54267 17.5332 4.36707 17.1092 4.36707 16.6672V4.9996H16.0346Z" stroke="#DBDBDB" stroke-width="1.66678" stroke-linecap="round" stroke-linejoin="round"/>
<path d="M11.8674 9.16669V14.1677" stroke="#DBDBDB" stroke-width="1.66678" stroke-linecap="round" stroke-linejoin="round"/>
<path d="M8.53394 9.16669V14.1677" stroke="#3D3D3D" stroke-width="1.66678" stroke-linecap="round" stroke-linejoin="round"/>
</svg>
