<svg width="21" height="20" viewBox="0 0 21 20" fill="none" xmlns="http://www.w3.org/2000/svg">
<g clip-path="url(#clip0_205_4743)">
<path d="M1.03333 16.6677V11.6667H6.03433" stroke="#DBDBDB" stroke-width="1.66678" stroke-linecap="round" stroke-linejoin="round"/>
<path d="M19.3686 3.33264V8.33365H14.3676" stroke="#DBDBDB" stroke-width="1.66678" stroke-linecap="round" stroke-linejoin="round"/>
<path d="M3.12517 7.5001C3.54785 6.30566 4.26621 5.23775 5.21324 4.39602C6.16026 3.55429 7.30508 2.96619 8.54087 2.68657C9.77666 2.40696 11.0631 2.44496 12.2803 2.79701C13.4974 3.14907 14.6055 3.80372 15.5012 4.69986L19.3682 8.33351M1.03333 11.6671L4.90032 15.3008C5.79602 16.1969 6.90414 16.8516 8.12127 17.2036C9.33841 17.5557 10.6249 17.5937 11.8607 17.3141C13.0965 17.0345 14.2413 16.4463 15.1883 15.6046C16.1353 14.7629 16.8537 13.695 17.2764 12.5005" stroke="#DBDBDB" stroke-width="1.66678" stroke-linecap="round" stroke-linejoin="round"/>
</g>
<defs>
<clipPath id="clip0_205_4743">
<rect width="20.0017" height="20.0017" fill="white" transform="translate(0.199951 -0.000854492)"/>
</clipPath>
</defs>
</svg>
